<?xml version="1.0" encoding="utf-8"?>
<svg width="16" height="16" fill="currentColor" class="bi bi-broadcast-pin" viewBox="0 0 16 16" xmlns="http://www.w3.org/2000/svg">
  <defs/>
  <path d="M 3.05 2.324 C 0.316 5.058 0.316 9.49 3.05 12.224 C 3.317 12.501 3.185 12.963 2.811 13.056 C 2.644 13.098 2.467 13.051 2.343 12.931 C -0.781 9.807 -0.781 4.741 2.343 1.617 C 2.62 1.349 3.082 1.482 3.175 1.856 C 3.217 2.023 3.17 2.2 3.05 2.324 M 5.172 4.446 C 3.61 6.008 3.61 8.54 5.172 10.102 C 5.445 10.374 5.32 10.84 4.948 10.939 C 4.775 10.986 4.59 10.936 4.464 10.81 C 2.511 8.857 2.511 5.691 4.464 3.738 C 4.737 3.465 5.202 3.59 5.302 3.962 C 5.348 4.135 5.298 4.319 5.172 4.446 M 10.828 3.738 C 11.023 3.542 11.341 3.542 11.536 3.738 C 13.489 5.691 13.489 8.857 11.536 10.81 C 11.263 11.082 10.798 10.958 10.698 10.585 C 10.652 10.413 10.702 10.228 10.828 10.102 C 12.39 8.54 12.39 6.008 10.828 4.446 C 10.632 4.251 10.632 3.933 10.828 3.738 M 12.95 1.618 C 13.145 1.423 13.462 1.423 13.657 1.618 C 16.781 4.742 16.781 9.807 13.657 12.931 C 13.38 13.198 12.918 13.066 12.825 12.692 C 12.783 12.525 12.83 12.348 12.95 12.224 C 15.684 9.49 15.684 5.058 12.95 2.324 C 12.755 2.129 12.755 1.812 12.95 1.617 L 12.95 1.618 Z M 6 7.274 C 6 5.734 7.667 4.772 9 5.543 C 10.334 6.313 10.333 8.237 9 9.007 C 8.843 9.097 8.675 9.166 8.5 9.211 L 8.5 14.774 C 8.5 15.159 8.083 15.399 7.75 15.207 C 7.595 15.118 7.5 14.953 7.5 14.774 L 7.5 9.211 C 6.617 8.983 6 8.186 6 7.274" style="fill: rgb(253, 68, 85);"/>
</svg>